<?xml version="1.0" standalone="no"?>
<!DOCTYPE svg PUBLIC "-//W3C//DTD SVG 20010904//EN"
 "http://www.w3.org/TR/2001/REC-SVG-20010904/DTD/svg10.dtd">
<svg version="1.0" xmlns="http://www.w3.org/2000/svg"
 width="640.000000pt" height="640.000000pt" viewBox="0 0 640.000000 640.000000"
 preserveAspectRatio="xMidYMid meet">
<metadata>
Created by potrace 1.14, written by Peter Selinger 2001-2017
</metadata>
<g transform="translate(0.000000,640.000000) scale(0.100000,-0.100000)"
fill="#000000" stroke="none">
<path d="M4820 5181 c-92 -25 -161 -57 -265 -120 -84 -51 -204 -140 -251 -186
-132 -129 -253 -219 -374 -278 -75 -36 -93 -41 -155 -41 -38 0 -115 8 -170 18
-67 12 -174 20 -320 23 -249 6 -428 -10 -604 -52 -124 -30 -141 -31 -227 -4
-145 45 -274 128 -454 294 -177 162 -329 259 -498 315 -74 25 -106 30 -160 28
l-66 -3 -21 -50 c-18 -45 -20 -72 -20 -290 0 -355 11 -414 234 -1223 46 -169
49 -188 40 -235 -5 -29 -12 -101 -15 -162 -8 -161 -16 -186 -99 -310 -40 -60
-79 -129 -86 -152 -14 -51 -7 -50 -187 -28 -264 33 -562 88 -697 130 -79 24
-105 22 -105 -10 0 -37 323 -112 719 -166 l240 -33 6 -45 c3 -26 11 -81 17
-123 6 -43 8 -81 4 -85 -4 -5 -206 -9 -449 -11 -252 -2 -446 -8 -452 -13 -6
-6 -3 -16 8 -27 16 -16 53 -17 472 -17 l455 0 56 -113 c32 -62 55 -115 52
-117 -3 -3 -75 -25 -160 -49 -373 -106 -688 -225 -688 -260 0 -7 7 -19 15 -26
12 -10 21 -8 47 8 84 51 744 262 819 262 17 0 32 -11 49 -38 37 -56 244 -259
330 -324 127 -95 254 -170 515 -302 402 -203 604 -268 835 -269 135 -1 249 19
400 69 262 88 761 374 965 553 73 64 181 177 240 251 68 85 40 84 301 10 323
-92 567 -175 630 -216 27 -18 56 -8 52 19 -5 36 -135 95 -378 172 -174 55
-233 73 -280 85 -100 25 -220 64 -220 71 0 5 13 30 28 56 16 26 41 73 57 104
l28 57 426 -5 c460 -5 536 -1 536 32 0 20 -10 20 -445 26 -245 3 -455 9 -466
13 l-22 7 19 62 c11 34 22 88 25 119 8 65 1 60 134 78 369 48 718 117 813 161
29 13 36 43 13 52 -8 3 -47 -5 -89 -18 -77 -25 -255 -63 -412 -89 -100 -17
-406 -56 -434 -56 -15 0 -23 18 -41 93 -35 145 -96 249 -201 344 l-36 33 -7
122 c-4 68 -15 162 -24 209 l-18 86 43 159 c147 542 165 621 189 833 23 206
16 472 -15 554 l-22 57 -57 -1 c-31 0 -86 -8 -122 -18z"/>
</g>
</svg>
